<svg width="342" height="79" viewBox="0 0 342 79" fill="none" xmlns="http://www.w3.org/2000/svg">
<path d="M8.73087 68.7917C13.9322 72.7639 19.629 74.75 25.8211 74.75C32.0751 74.75 36.9049 73.1611 40.3106 69.9833C43.7782 66.7333 45.512 62.5445 45.512 57.4167C45.512 54.6 44.7689 52.1445 43.2828 50.05C41.7967 47.9556 39.9391 46.3306 37.7099 45.175C35.2331 43.875 30.4342 42.1056 23.3133 39.8667C16.1924 37.5556 11.2696 35.6417 8.5451 34.125C5.8825 32.5361 3.77718 30.55 2.22916 28.1667C0.743052 25.7833 0 23.0389 0 19.9333C0 13.8667 1.70283 9.02778 5.10848 5.41667C8.51414 1.80556 13.9322 0 21.3628 0C28.7314 0 35.5117 3.06945 41.7038 9.20834C42.6945 10.1472 43.1899 9.78611 43.1899 8.125V2.70833C43.1899 1.625 43.6543 1.08333 44.5831 1.08333C45.512 1.08333 45.9764 1.625 45.9764 2.70833V23.2917C45.9764 24.375 45.512 24.9167 44.5831 24.9167C43.6543 24.9167 43.1899 24.375 43.1899 23.2917V15.7083C39.7843 11.1583 35.5427 7.65555 30.4651 5.2C27.7406 3.9 24.7065 3.25 21.3628 3.25C15.0468 3.25 10.3718 4.76667 7.33764 7.8C4.30351 10.8333 2.78645 14.5528 2.78645 18.9583C2.78645 21.775 3.5295 24.2306 5.0156 26.325C6.50171 28.4194 8.35934 30.0444 10.5885 31.2C13.0653 32.5 17.8642 34.3056 24.9851 36.6167C32.1061 38.8556 36.9978 40.7694 39.6604 42.3583C42.3849 43.875 44.4903 45.825 45.9764 48.2083C47.5244 50.5917 48.2984 53.4444 48.2984 56.7667C48.2984 63.2667 46.3479 68.4306 42.4469 72.2583C38.5458 76.0861 32.7562 78 25.078 78C17.3998 78 10.4647 74.9306 4.27255 68.7917C3.28181 67.8528 2.78645 68.2139 2.78645 69.875V75.2917C2.78645 76.375 2.32204 76.9167 1.39322 76.9167C0.464408 76.9167 0 76.375 0 75.2917V54.7083C0 53.625 0.464408 53.0833 1.39322 53.0833C2.32204 53.0833 2.78645 53.625 2.78645 54.7083V62.8333C4.45831 65.0722 6.43979 67.0583 8.73087 68.7917Z" fill="black"/>
<path d="M55.7783 18.4167V2.70833C55.7783 1.625 56.2427 1.08333 57.1715 1.08333H107.328C108.256 1.08333 108.721 1.625 108.721 2.70833V18.4167C108.721 19.5 108.256 20.0417 107.328 20.0417C106.399 20.0417 105.934 19.5 105.934 18.4167V5.95833C105.934 4.875 105.47 4.33333 104.541 4.33333H85.0359C84.1071 4.33333 83.6427 4.875 83.6427 5.95833V72.0417C83.6427 73.125 84.1071 73.6667 85.0359 73.6667H91.5377C92.4665 73.6667 92.9309 74.2083 92.9309 75.2917C92.9309 76.375 92.4665 76.9167 91.5377 76.9167H72.9613C72.0325 76.9167 71.5681 76.375 71.5681 75.2917C71.5681 74.2083 72.0325 73.6667 72.9613 73.6667H79.4631C80.3919 73.6667 80.8563 73.125 80.8563 72.0417V5.95833C80.8563 4.875 80.3919 4.33333 79.4631 4.33333H59.9579C59.0291 4.33333 58.5647 4.875 58.5647 5.95833V18.4167C58.5647 19.5 58.1003 20.0417 57.1715 20.0417C56.2427 20.0417 55.7783 19.5 55.7783 18.4167Z" fill="black"/>
<path d="M191.614 43.875C190.685 43.875 190.221 43.3333 190.221 42.25C190.221 41.1667 190.685 40.625 191.614 40.625H227.838C228.767 40.625 229.231 41.1667 229.231 42.25C229.231 43.3333 228.767 43.875 227.838 43.875H191.614Z" fill="black"/>
<path d="M232.199 18.4167V2.70833C232.199 1.625 232.663 1.08333 233.592 1.08333H283.748C284.677 1.08333 285.141 1.625 285.141 2.70833V18.4167C285.141 19.5 284.677 20.0417 283.748 20.0417C282.819 20.0417 282.355 19.5 282.355 18.4167V5.95833C282.355 4.875 281.89 4.33333 280.962 4.33333H261.456C260.528 4.33333 260.063 4.875 260.063 5.95833V72.0417C260.063 73.125 260.528 73.6667 261.456 73.6667H267.958C268.887 73.6667 269.351 74.2083 269.351 75.2917C269.351 76.375 268.887 76.9167 267.958 76.9167H249.382C248.453 76.9167 247.989 76.375 247.989 75.2917C247.989 74.2083 248.453 73.6667 249.382 73.6667H255.884C256.812 73.6667 257.277 73.125 257.277 72.0417V5.95833C257.277 4.875 256.812 4.33333 255.884 4.33333H236.378C235.45 4.33333 234.985 4.875 234.985 5.95833V18.4167C234.985 19.5 234.521 20.0417 233.592 20.0417C232.663 20.0417 232.199 19.5 232.199 18.4167Z" fill="black"/>
<path d="M302.432 68.7917C307.634 72.7639 313.331 74.75 319.523 74.75C325.777 74.75 330.606 73.1611 334.012 69.9833C337.48 66.7333 339.214 62.5445 339.214 57.4167C339.214 54.6 338.47 52.1445 336.984 50.05C335.498 47.9556 333.641 46.3306 331.411 45.175C328.935 43.875 324.136 42.1056 317.015 39.8667C309.894 37.5556 304.971 35.6417 302.247 34.125C299.584 32.5361 297.479 30.55 295.931 28.1667C294.445 25.7833 293.702 23.0389 293.702 19.9333C293.702 13.8667 295.404 9.02778 298.81 5.41667C302.216 1.80556 307.634 0 315.064 0C322.433 0 329.213 3.06945 335.405 9.20834C336.396 10.1472 336.891 9.78611 336.891 8.125V2.70833C336.891 1.625 337.356 1.08333 338.285 1.08333C339.214 1.08333 339.678 1.625 339.678 2.70833V23.2917C339.678 24.375 339.214 24.9167 338.285 24.9167C337.356 24.9167 336.891 24.375 336.891 23.2917V15.7083C333.486 11.1583 329.244 7.65555 324.167 5.2C321.442 3.9 318.408 3.25 315.064 3.25C308.748 3.25 304.073 4.76667 301.039 7.8C298.005 10.8333 296.488 14.5528 296.488 18.9583C296.488 21.775 297.231 24.2306 298.717 26.325C300.203 28.4194 302.061 30.0444 304.29 31.2C306.767 32.5 311.566 34.3056 318.687 36.6167C325.808 38.8556 330.699 40.7694 333.362 42.3583C336.087 43.875 338.192 45.825 339.678 48.2083C341.226 50.5917 342 53.4444 342 56.7667C342 63.2667 340.049 68.4306 336.148 72.2583C332.247 76.0861 326.458 78 318.78 78C311.101 78 304.166 74.9306 297.974 68.7917C296.983 67.8528 296.488 68.2139 296.488 69.875V75.2917C296.488 76.375 296.024 76.9167 295.095 76.9167C294.166 76.9167 293.702 76.375 293.702 75.2917V54.7083C293.702 53.625 294.166 53.0833 295.095 53.0833C296.024 53.0833 296.488 53.625 296.488 54.7083V62.8333C298.16 65.0722 300.141 67.0583 302.432 68.7917Z" fill="black"/>
</svg>
